<?xml version="1.0" encoding="UTF-8"?>
<svg version="1.1" xmlns="http://www.w3.org/2000/svg" width="158" height="133">
<path d="M0 0 C52.14 0 104.28 0 158 0 C158 43.89 158 87.78 158 133 C105.86 133 53.72 133 0 133 C0 89.11 0 45.22 0 0 Z " fill="#FAFAFA" transform="translate(0,0)"/>
<path d="M0 0 C3.0625 0.1875 3.0625 0.1875 5.0625 2.1875 C4.7135457 5.9562064 4.00492204 9.53058028 3.0625 13.1875 C4.23167969 13.15269531 5.40085938 13.11789063 6.60546875 13.08203125 C8.15363141 13.05388284 9.70180968 13.02658381 11.25 13 C12.01892578 12.97486328 12.78785156 12.94972656 13.58007812 12.92382812 C19.88071492 12.84270405 23.01530503 14.28653324 27.6875 18.625 C32.48562819 23.80192778 33.6160351 26.46431299 33.41796875 33.56640625 C32.93511713 37.1267737 31.65033002 38.74343831 29.0625 41.1875 C28.381875 42.074375 27.70125 42.96125 27 43.875 C25.0625 46.1875 25.0625 46.1875 22.0625 48.1875 C18.875 48.3125 18.875 48.3125 16.0625 48.1875 C15.815 49.115625 15.5675 50.04375 15.3125 51 C13.97872403 54.40112873 13.16300754 55.40235929 10.0625 57.1875 C6.35027388 58.42490871 2.92022118 58.74506126 -0.9375 58.1875 C-4.21731751 56.11978896 -5.78496007 54.41630989 -7.9375 51.1875 C-10.25688318 50.49894291 -10.25688318 50.49894291 -12.875 50.1875 C-17.47577276 49.53702256 -17.47577276 49.53702256 -19.75390625 47.8125 C-20.9375 46.1875 -20.9375 46.1875 -20.9375 43.1875 C-21.741875 42.878125 -22.54625 42.56875 -23.375 42.25 C-25.9375 41.1875 -25.9375 41.1875 -26.9375 40.1875 C-27.1165571 38.10926348 -27.20557871 36.02296283 -27.25 33.9375 C-27.28738281 32.79796875 -27.32476563 31.6584375 -27.36328125 30.484375 C-26.85665907 26.56153904 -25.57622852 25.05414173 -22.9375 22.1875 C-22.64875 21.48625 -22.36 20.785 -22.0625 20.0625 C-20.32199265 17.16165441 -18.00951644 16.50761766 -14.9375 15.1875 C-11.2890625 14.45703125 -11.2890625 14.45703125 -7.5625 14 C-6.31726563 13.84144531 -5.07203125 13.68289062 -3.7890625 13.51953125 C-2.84804688 13.40996094 -1.90703125 13.30039062 -0.9375 13.1875 C-2.02534968 9.93766865 -2.02534968 9.93766865 -3.9375 7.1875 C-4.0625 4.1875 -4.0625 4.1875 -3.9375 1.1875 C-2.9375 0.1875 -2.9375 0.1875 0 0 Z " fill="#D4E1E5" transform="translate(53.9375,26.8125)"/>
<path d="M0 0 C0.68682861 0.03005127 1.37365723 0.06010254 2.08129883 0.09106445 C4.87197901 0.28977731 6.93763974 0.51282723 9.2734375 2.11328125 C12.54449535 7.15906197 12.0358199 14.06179347 11.375 19.8125 C9.03032628 23.72028953 6.58370206 24.9986122 2.3125 26.125 C-3.09237913 26.9779703 -8.53854589 27.05208927 -14 27.125 C-15.32076538 27.15170776 -15.32076538 27.15170776 -16.66821289 27.17895508 C-22.92078023 27.17115063 -22.92078023 27.17115063 -26.1484375 25.52734375 C-29.33777249 21.82332772 -29.54046377 16.81002753 -29.9375 12.125 C-29.58946284 8.4358061 -28.98242099 6.65766326 -26.625 3.8125 C-18.33140726 -0.10391879 -9.01775059 -0.47299841 0 0 Z " fill="#111314" transform="translate(65.625,45.1875)"/>
<path d="M0 0 C2.1640625 0.53125 2.1640625 0.53125 4.7265625 2.15625 C6.74749442 5.49518099 6.6357968 7.68998495 6.1640625 11.53125 C3.9640625 16.13125 3.9640625 16.13125 1.1640625 17.53125 C-0.35438952 17.62597912 -1.87704134 17.6611341 -3.3984375 17.65625 C-4.60693359 17.66011719 -4.60693359 17.66011719 -5.83984375 17.6640625 C-7.8359375 17.53125 -7.8359375 17.53125 -8.8359375 16.53125 C-9.07247273 14.00528741 -9.25767442 11.50017793 -9.3984375 8.96875 C-9.44162109 8.25783203 -9.48480469 7.54691406 -9.52929688 6.81445312 C-9.63565527 5.05363088 -9.73632596 3.2924668 -9.8359375 1.53125 C-6.06849066 -0.98038123 -4.32418671 -0.61975314 0 0 Z " fill="#1B1B1B" transform="translate(107.8359375,54.46875)"/>
<path d="M0 0 C2.99052865 0.09260289 4.05183828 0.3303892 6.6875 1.9375 C8.125 4.375 8.125 4.375 8.0625 7.9375 C7.125 11.375 7.125 11.375 6 13.3125 C2.90210642 15.06797303 0.59655466 14.86223574 -2.875 14.375 C-5.375 12.3125 -5.375 12.3125 -6.875 9.375 C-6.67343319 3.42877906 -6.34515889 0.61404763 0 0 Z " fill="#55B3FE" transform="translate(36.875,81.625)"/>
<path d="M0 0 C2.875 1.625 2.875 1.625 5 4 C5.67927401 7.62279473 5.46942769 9.25673949 3.5 12.375 C-0.24099229 14.80664499 -2.57426418 14.49174842 -7 14 C-9 12.9375 -9 12.9375 -10 11 C-10.50030235 7.06905293 -10.5996142 4.8994213 -8.375 1.5625 C-5.26456309 -0.48384007 -3.66322334 -0.59807728 0 0 Z " fill="#55B3FE" transform="translate(83,78)"/>
<path d="M0 0 C-1.43729508 3.59323771 -2.47854169 5.63619187 -5.6875 7.875 C-9.93453062 9.31738776 -12.51814551 9.49798383 -17 9 C-19.96449755 7.23391635 -21.64254099 6.2166928 -22.62890625 2.859375 C-22.75136719 2.24578125 -22.87382813 1.6321875 -23 1 C-20.29178874 0.83111377 -17.58345903 0.66482399 -14.875 0.5 C-14.11445312 0.45230469 -13.35390625 0.40460938 -12.5703125 0.35546875 C-8.3724967 0.10215228 -4.20798902 -0.05377622 0 0 Z " fill="#9DB0B9" transform="translate(70,76)"/>
<path d="M0 0 C1.875 1.25 1.875 1.25 3 3 C3 4.32 3 5.64 3 7 C0.36 7.66 -2.28 8.32 -5 9 C-5 9.33 -5 9.66 -5 10 C-2.36 10 0.28 10 3 10 C2 13 2 13 0 14 C-3.5817622 14.38932198 -5.36281721 14.43596718 -8.375 12.375 C-10.48706506 9.28813568 -10.61195145 7.6717087 -10 4 C-7.21052575 -0.0769239 -4.82207542 -0.71818145 0 0 Z " fill="#282828" transform="translate(134,56)"/>
<path d="M0 0 C0.83144531 0.00902344 1.66289063 0.01804687 2.51953125 0.02734375 C4.55481337 0.0507378 6.58994564 0.08660275 8.625 0.125 C8.625 1.445 8.625 2.765 8.625 4.125 C3.51263219 6.19934732 -0.83830893 6.36924065 -6.25 6.25 C-7.425625 6.23646484 -7.425625 6.23646484 -8.625 6.22265625 C-10.54180055 6.19928063 -12.45844191 6.16341653 -14.375 6.125 C-14.705 4.805 -15.035 3.485 -15.375 2.125 C-10.12544832 -0.03258273 -5.56689716 -0.11542211 0 0 Z " fill="#DDE0E4" transform="translate(63.375,100.875)"/>
<path d="M0 0 C3.0625 0.1875 3.0625 0.1875 5.0625 2.1875 C4.71488379 5.94175503 4.0790376 9.55700856 3.0625 13.1875 C1.7425 13.1875 0.4225 13.1875 -0.9375 13.1875 C-1.246875 12.383125 -1.55625 11.57875 -1.875 10.75 C-2.70085345 8.29669595 -2.70085345 8.29669595 -3.9375 7.1875 C-4.0625 4.1875 -4.0625 4.1875 -3.9375 1.1875 C-2.9375 0.1875 -2.9375 0.1875 0 0 Z " fill="#4B9FE4" transform="translate(53.9375,26.8125)"/>
<path d="M0 0 C1.99954746 -0.04254356 4.00041636 -0.04080783 6 0 C7 1 7 1 7.09765625 3.28515625 C7.08605469 4.20167969 7.07445312 5.11820313 7.0625 6.0625 C7.05347656 6.98160156 7.04445313 7.90070312 7.03515625 8.84765625 C7.02355469 9.55792969 7.01195312 10.26820312 7 11 C4.625 11.625 4.625 11.625 2 12 C0 10 0 10 -0.1953125 7.6171875 C-0.17210937 6.71226563 -0.14890625 5.80734375 -0.125 4.875 C-0.10695312 3.96492188 -0.08890625 3.05484375 -0.0703125 2.1171875 C-0.04710937 1.41851562 -0.02390625 0.71984375 0 0 Z " fill="#46A5F0" transform="translate(42,53)"/>
<path d="M0 0 C2.5 0.125 2.5 0.125 3.5 1.125 C3.59823937 2.78929051 3.62973631 4.45781931 3.625 6.125 C3.62757812 7.0325 3.63015625 7.94 3.6328125 8.875 C3.5 11.125 3.5 11.125 2.5 12.125 C0.83382885 12.16563832 -0.83388095 12.167721 -2.5 12.125 C-3.67661508 8.44807787 -3.64475933 4.9611222 -3.5 1.125 C-2.5 0.125 -2.5 0.125 0 0 Z " fill="#48AAF7" transform="translate(67.5,50.875)"/>
<path d="M0 0 C5 1 5 1 7 3 C7.36962413 5.88306818 7.4200394 7.39094287 5.75 9.8125 C4 11 4 11 0 11 C0 7.37 0 3.74 0 0 Z " fill="#ECECEC" transform="translate(103,58)"/>
<path d="M0 0 C0.66 0 1.32 0 2 0 C2.33 5.61 2.66 11.22 3 17 C-1 16 -1 16 -2 15 C-2.12537741 12.85692104 -2.17574364 10.70921114 -2.1875 8.5625 C-2.20167969 7.38816406 -2.21585938 6.21382812 -2.23046875 5.00390625 C-2 2 -2 2 0 0 Z " fill="#55B3FD" transform="translate(29,52)"/>
<path d="M0 0 C4 2 4 2 5 4 C5.07033769 5.87379605 5.0843022 7.75001102 5.0625 9.625 C5.05347656 10.62789062 5.04445313 11.63078125 5.03515625 12.6640625 C5.02355469 13.43492188 5.01195313 14.20578125 5 15 C3.02 15.99 3.02 15.99 1 17 C0.67 11.39 0.34 5.78 0 0 Z " fill="#56B4FE" transform="translate(82,48)"/>
<path d="M0 0 C1.32 0.33 2.64 0.66 4 1 C4.33 5.29 4.66 9.58 5 14 C3.35 13.67 1.7 13.34 0 13 C0 8.71 0 4.42 0 0 Z " fill="#242424" transform="translate(117,57)"/>
<path d="M0 0 C5.28 0.33 10.56 0.66 16 1 C12 6 12 6 9.25 6.8125 C8.5075 6.874375 7.765 6.93625 7 7 C5.875 3.25 5.875 3.25 7 1 C4.69 1 2.38 1 0 1 C0 0.67 0 0.34 0 0 Z " fill="#303437" transform="translate(57,45)"/>
<path d="M0 0 C1.23556641 0.01740234 1.23556641 0.01740234 2.49609375 0.03515625 C3.32238281 0.04417969 4.14867187 0.05320313 5 0.0625 C5.63808594 0.07410156 6.27617188 0.08570313 6.93359375 0.09765625 C6.60359375 1.41765625 6.27359375 2.73765625 5.93359375 4.09765625 C3.62359375 4.42765625 1.31359375 4.75765625 -1.06640625 5.09765625 C-1.72640625 3.77765625 -2.38640625 2.45765625 -3.06640625 1.09765625 C-2.06640625 0.09765625 -2.06640625 0.09765625 0 0 Z " fill="#47A7F3" transform="translate(55.06640625,62.90234375)"/>
</svg>
